<?xml version="1.0" encoding="UTF-8" standalone="no" ?>
<!DOCTYPE svg PUBLIC "-//W3C//DTD SVG 1.1//EN" "http://www.w3.org/Graphics/SVG/1.1/DTD/svg11.dtd">
<svg xmlns="http://www.w3.org/2000/svg" xmlns:xlink="http://www.w3.org/1999/xlink" version="1.1" width="200" height="200" viewBox="0 0 200 200" xml:space="preserve">
<desc>Created with Fabric.js 4.6.0</desc>
<defs>
</defs>
<g transform="matrix(1.5 0 0 1.5 -2766.7 987.2)" style="" id="r6S1dwdlsoMdLDo_5imkL"  >
		<text xml:space="preserve" font-family="sans-serif" font-size="40" font-style="normal" font-weight="normal" line-height="0.0125" style="stroke: none; stroke-width: 1; stroke-dasharray: none; stroke-linecap: butt; stroke-dashoffset: 0; stroke-linejoin: miter; stroke-miterlimit: 4; fill: rgb(0,0,0); fill-rule: nonzero; opacity: 1; white-space: pre;" ><tspan x="-4.45" y="12.57" ></tspan></text>
</g>
<g transform="matrix(0.2 0 0 -0.2 151.4 154.6)" id="8lq4vVYr1MgrWQQJvOfTQ"  >
<path style="stroke: none; stroke-width: 0.09; stroke-dasharray: none; stroke-linecap: butt; stroke-dashoffset: 0; stroke-linejoin: miter; stroke-miterlimit: 4; fill: rgb(236,72,153); fill-rule: nonzero; opacity: 1;" vector-effect="non-scaling-stroke"  transform=" translate(-15704.28, -12589.9)" d="M 15706.767 12613.344 C 15702.822 12613.313999999998 15698.617 12611.095 15696.485999999999 12608.21 L 15694.668 12606.21 C 15692.69 12603.760999999999 15690.886 12601.159 15689.435 12598.428999999998 C 15688.715 12597.072999999999 15687.1 12593.802999999998 15686.314 12589.862 C 15685.559000000001 12586.072999999999 15683.581 12576.14 15690.462 12570.359999999999 C 15695.117 12566.452 15701.438 12566.46 15703.653 12566.46 C 15705.321 12566.46 15713.035 12566.63 15718.289 12571.283 C 15727.615 12579.546999999999 15721.11 12594.777 15717.725 12602.701 C 15713.857 12611.761999999999 15710.061 12612.956999999999 15708.434000000001 12613.22 C 15707.888 12613.31 15707.330000000002 12613.348 15706.767000000002 12613.344 z" stroke-linecap="round" />
</g>
<g transform="matrix(0.2 0 0 -0.2 127.85 165.43)" id="QZpURs9X_0qWSBCh98C2V"  >
<path style="stroke: none; stroke-width: 0.09; stroke-dasharray: none; stroke-linecap: butt; stroke-dashoffset: 0; stroke-linejoin: miter; stroke-miterlimit: 4; fill: rgb(236,72,153); fill-rule: nonzero; opacity: 1;" vector-effect="non-scaling-stroke"  transform=" translate(-15586.52, -12535.74)" d="M 15601.391 12565.928 C 15600.284 12569.597 15599.534 12573.403 15597.588 12576.793 C 15595.64 12580.175 15592.173999999999 12583.167 15587.913999999999 12583.556999999999 C 15581.927999999998 12584.106999999998 15577.302999999998 12578.293 15576.105 12576.819 C 15574.283 12574.573 15574.034 12573.225 15570.223 12562.368 C 15570.223 12562.368 15569.64 12559.571 15567.58 12554.943000000001 C 15562.125 12542.679000000002 15559.364 12536.568000000001 15558.972 12535.509000000002 C 15557.208999999999 12530.754000000003 15551.378 12516.642000000002 15558.06 12503.853000000001 C 15561.408 12497.445000000002 15566.510999999999 12493.971000000001 15567.574999999999 12493.267000000002 C 15574.806999999999 12488.487000000001 15582.432999999999 12488.080000000002 15585.658 12487.953000000001 C 15588.971 12487.817000000001 15596.39 12487.512 15603.693 12491.470000000001 C 15613.249 12496.657000000001 15616.083999999999 12505.607000000002 15616.873 12508.099000000002 C 15619.692 12516.990000000002 15617.273 12525.025000000001 15613.884 12536.272000000003 C 15612.699 12540.204000000003 15608.466 12542.459000000003 15601.391 12565.928000000004" stroke-linecap="round" />
</g>
<g transform="matrix(0.2 0 0 -0.2 100 98.84)" id="kLceZJwHlZJ5FzMlkRODE"  >
<radialGradient id="SVGID_4" gradientUnits="userSpaceOnUse" gradientTransform="matrix(1 0 0 0.98 0 199.87)"  cx="15447.278" cy="12868.71" r="375" fx="15447.278" fy="12868.71">
<stop offset="0%" style="stop-color:rgb(255,176,215);stop-opacity: 1"/>
<stop offset="100%" style="stop-color:rgb(255,176,215);stop-opacity: 0"/>
</radialGradient>
<path style="stroke: url(#SVGID_4); stroke-width: 0.09; stroke-dasharray: none; stroke-linecap: butt; stroke-dashoffset: 0; stroke-linejoin: miter; stroke-miterlimit: 4; fill: rgb(236,72,153); fill-rule: nonzero; opacity: 1;" vector-effect="non-scaling-stroke"  transform=" translate(-15447.28, -12868.71)" d="M 15447.278 13237.886 C 15240.171 13237.886 15072.278 13088.895 15072.278 12905.093 C 15072.278 12836.320000000002 15095.782000000001 12772.429 15136.06 12719.381000000001 C 15153.081 12692.083 15168.993 12692.287000000002 15172.295 12680.61 C 15178.366 12659.136 15158.436 12637.651 15171.639 12624.7 C 15175.214 12621.191 15182.053 12617.487000000001 15189.687 12617.708 C 15195.163 12617.869 15201.828 12620.074 15205.765 12624.405 C 15219.264 12639.271 15192.007 12667.468 15205.765 12682.357 C 15211.523 12688.587 15221.581 12689.292 15222.501 12689.345 C 15233.564 12689.988 15241.472 12683.520999999999 15243.172 12682.064999999999 C 15252.295 12669.329999999998 15261.734 12651.774999999998 15263.846000000001 12630.225999999999 C 15268.334 12584.432999999999 15236.639000000001 12554.107999999998 15254.987000000001 12532.384999999998 C 15260.561000000002 12525.782999999998 15270.435000000001 12520.502999999999 15280.639000000001 12520.036999999998 C 15291.660000000002 12519.527999999998 15302.984 12524.63 15309.451000000001 12531.529999999999 C 15333.353000000001 12557.015 15290.417000000001 12605.605 15314.378 12629.064999999999 C 15314.664 12629.345 15314.951000000001 12629.615999999998 15314.951000000001 12629.615999999998 C 15320.376 12634.582999999999 15328.764000000001 12635.624999999998 15333.411 12635.259999999998 C 15343.126 12634.505999999998 15349.615 12626.615999999998 15351.984 12623.733999999999 C 15376.104000000001 12594.408999999998 15339.782000000001 12531.274999999998 15367.537 12508.213999999998 C 15377.336000000001 12500.068999999998 15389.201000000001 12499.542999999998 15389.201000000001 12499.542999999998 C 15389.201000000001 12499.542999999998 15402.284000000001 12498.957999999999 15413.805 12507.628999999997 C 15449.585000000001 12534.571999999996 15391.254 12624.183999999997 15422.992 12651.779999999997 C 15425.392 12653.866999999997 15433.628 12661.029999999997 15445.08 12661.156999999997 C 15453.617 12661.256999999998 15462.692 12657.424999999997 15468.277 12651.487999999998 C 15485.078 12633.633999999998 15461.052 12606.528999999997 15477.792 12590.331999999997 C 15483.017 12585.280999999997 15491.527 12581.958999999997 15499.777 12582.178999999996 C 15500.841 12582.208999999997 15512.275 12582.669999999996 15519.465 12590.043999999996 C 15533.271 12604.206999999997 15513.554 12625.514999999996 15527.997 12643.914999999995 C 15529.685 12646.067999999996 15534.872 12652.041999999996 15543.883 12654.521999999995 C 15552.015 12656.758999999995 15562.384 12655.907999999996 15569.828 12650.923999999995 C 15578.814999999999 12644.905999999995 15575.548999999999 12638.210999999996 15584.961 12631.972999999996 C 15593.543 12626.293999999996 15603.774 12626.869999999997 15606.428 12627.022999999996 C 15609.338 12627.191999999995 15622.466 12628.260999999995 15630.364 12637.015999999996 C 15640.484 12648.220999999996 15631.351999999999 12660.222999999996 15643.095 12671.448999999997 C 15644.923999999999 12673.195999999996 15649.451 12677.403999999997 15655.767 12677.545999999997 C 15661.651 12677.678999999996 15666.374 12674.220999999996 15669.467999999999 12671.955999999996 C 15675.337 12667.659999999996 15674.506 12665.457999999997 15680.088999999998 12661.715999999997 C 15681.606999999998 12660.698999999997 15686.479999999998 12657.510999999997 15693.331999999999 12656.678999999996 C 15701.840999999999 12655.647999999996 15708.589999999998 12658.834999999997 15710.628999999999 12659.797999999997 C 15726.053999999998 12667.082999999997 15724.250999999998 12682.498999999996 15736.805999999999 12698.060999999998 C 15742.203 12704.749999999998 15748.644999999999 12699.747999999998 15758.494999999999 12719.380999999998 C 15798.773 12772.428999999998 15822.277999999998 12836.319999999998 15822.277999999998 12905.092999999997 C 15822.277999999998 13088.894999999997 15654.384999999998 13237.885999999997 15447.277999999998 13237.885999999997 z" stroke-linecap="round" />
</g>
<g transform="matrix(0.2 0 0 -0.2 53.87 89.54)" id="TYb3y4SNKdlCDKWtnb7Q_"  >
<path style="stroke: rgb(255,255,255); stroke-width: 0; stroke-dasharray: none; stroke-linecap: butt; stroke-dashoffset: 0; stroke-linejoin: miter; stroke-miterlimit: 4; fill: rgb(255,255,255); fill-rule: nonzero; opacity: 1;" vector-effect="non-scaling-stroke"  transform=" translate(-14918.04, -12904.46)" d="M 14884.566 12777.208 C 14881.232 12862.049 14891.967 12950.825 14892.09 13031.817000000001 C 14892.1 13040.621000000001 14953.303 13041.417000000001 14952.149 13033.282000000001 C 14939.422999999999 12943.543000000001 14945.262999999999 12858.722000000002 14946.288999999999 12776.202000000001 C 14946.413999999999 12766.131000000001 14884.863 12769.652000000002 14884.565999999999 12777.208 z" stroke-linecap="round" />
</g>
<g transform="matrix(0.2 0 0 -0.2 92.53 89.49)" id="IgkBMZ6ZnNkLkDNkBA2ku"  >
<path style="stroke: rgb(255,255,255); stroke-width: 1; stroke-dasharray: none; stroke-linecap: butt; stroke-dashoffset: 0; stroke-linejoin: miter; stroke-miterlimit: 4; fill: rgb(255,255,255); fill-rule: nonzero; opacity: 1;" vector-effect="non-scaling-stroke"  transform=" translate(-15111.33, -12904.69)" d="M 14968.506 13031.817 C 14966.714 13040.479 15022.465999999999 13039.849999999999 15023.439 13032.55 C 15034.229000000001 12951.588 15047.608 12854.571 15047.608 12854.571 C 15047.608 12854.571 15075.3 12976.973 15079.835000000001 13032.55 C 15080.532000000001 13041.096 15142.211000000001 13041.095 15142.823 13033.282 C 15147.288 12976.302 15164.064 12854.571 15164.064 12854.571 C 15164.064 12854.571 15199.474 12987.591 15202.149 13031.818 C 15202.795 13042.507 15255.952 13040.946 15254.151 13032.55 C 15235.38 12945.026 15207.785 12861.846 15193.36 12774.738 C 15191.973 12766.363 15122.714 12770.179 15122.316 12778.4 C 15119.825 12829.916 15105.470000000001 12932.207999999999 15105.470000000001 12932.207999999999 C 15105.470000000001 12932.207999999999 15084.19 12816.401999999998 15076.905 12775.47 C 15075.495 12767.55 15008.681 12768.55 15007.325 12777.668 C 14985.937 12921.502999999999 14986.389000000001 12945.394 14968.506000000001 13031.817 z" stroke-linecap="round" />
</g>
<g transform="matrix(0.2 0 0 -0.2 142.19 90.23)" id="6Mw3UuJTl-t2_sNSC0iXY"  >
<path style="stroke: rgb(255,255,255); stroke-width: 1; stroke-dasharray: none; stroke-linecap: butt; stroke-dashoffset: 0; stroke-linejoin: miter; stroke-miterlimit: 4; fill: rgb(255,255,255); fill-rule: nonzero; opacity: 1;" vector-effect="non-scaling-stroke"  transform=" translate(-15359.64, -12900.99)" d="M 15274.414 13032.549 C 15370.810000000001 13028.884 15383.261 13026.132000000001 15445.801000000001 13032.549 C 15454.027000000002 13033.393 15445.954000000002 13018.063 15444.336000000001 12977.618 C 15444.037 12970.148000000001 15387.207 12978.35 15387.207 12978.35 C 15379.181 12941.008 15380.896 12846.841 15380.616 12776.202000000001 C 15380.586 12767.703000000001 15321.181 12766.084 15322.022 12777.667000000001 C 15327.358 12851.142000000002 15329.352 12913.464000000002 15329.346000000001 12977.618 C 15329.346000000001 12977.618 15274.623000000001 12966.547 15273.682 12976.153 C 15270.445000000002 13009.181 15266.628 13032.845 15274.414 13032.549 z" stroke-linecap="round" />
</g>
</svg>